# xmcd
#
# Track frame offsets:
#	150
#	20915
#	41749
#	56399
#	73682
#	91010
#	105242
#	127682
#	141487
#	166865
#	182147
#	200332
#	219299
#	241194
#	257376
#	271851
#	291640
#	311773
#
# Disc length: 4387 seconds
#
# Revision: 0
# Processed by: cddbd v1.5.2PL0 Copyright (c) Steve Scherf et al.
# Submitted via: dBpowerAMP V4.0
#
DISCID=fd112112
DTITLE=Various Artist - Bunch Of Time
DYEAR=1900
DGENRE=Country
TTITLE0=Crocodile Harris - Give Me The Good News
TTITLE1=Gino Vannelli - Wild Horses
TTITLE2=Tight Fit - The Lion Sleeps Tonight
TTITLE3=Cinema - My Kind Of Girl
TTITLE4=Yaki Da - I Saw You Dancing
TTITLE5=Zididada - Please Ya Lisa
TTITLE6=Pierre De Charmoy - Live On
TTITLE7=Olsen Brothers - Fly On The Wings Of Love
TTITLE8=Labi Sifre - Something Inside So Strong
TTITLE9=Lloyd Ross - Vyfster
TTITLE10=Lonestar - Amazed
TTITLE11=PhD - I Wont Let You Down
TTITLE12=Roxy Music - Oh Yeah
TTITLE13=Pussycat - Teenage Queenie
TTITLE14=Tarkan - Simarik
TTITLE15=Desireless - Voyage Voyage
TTITLE16=Patty Smyth and Don Henley - Sometimes Love Just Aint Enough
TTITLE17=Rupert Holmes - The Pina Colada Song
EXTD=
EXTT0=
EXTT1=
EXTT2=
EXTT3=
EXTT4=
EXTT5=
EXTT6=
EXTT7=
EXTT8=
EXTT9=
EXTT10=
EXTT11=
EXTT12=
EXTT13=
EXTT14=
EXTT15=
EXTT16=
EXTT17=
PLAYORDER=
